<?xml version="1.0" encoding="UTF-8" standalone="no"?>
<!-- Created with Inkscape (http://www.inkscape.org/) -->

<svg
   width="297mm"
   height="210mm"
   viewBox="0 0 297 210"
   version="1.1"
   id="svg5158"
   inkscape:version="1.2.2 (1:1.2.2+202212051550+b0a8486541)"
   sodipodi:docname="bayes_2.svg"
   inkscape:export-filename="../png/bayes_2.png"
   inkscape:export-xdpi="96"
   inkscape:export-ydpi="96"
   xmlns:inkscape="http://www.inkscape.org/namespaces/inkscape"
   xmlns:sodipodi="http://sodipodi.sourceforge.net/DTD/sodipodi-0.dtd"
   xmlns="http://www.w3.org/2000/svg"
   xmlns:svg="http://www.w3.org/2000/svg"
   xmlns:rdf="http://www.w3.org/1999/02/22-rdf-syntax-ns#"
   xmlns:cc="http://creativecommons.org/ns#"
   xmlns:dc="http://purl.org/dc/elements/1.1/">
  <defs
     id="defs5152">
    <marker
       inkscape:isstock="true"
       style="overflow:visible"
       id="marker6047"
       refX="0"
       refY="0"
       orient="auto"
       inkscape:stockid="Arrow2Lend">
      <path
         transform="matrix(-1.1,0,0,-1.1,-1.1,0)"
         d="M 8.7185878,4.0337352 -2.2072895,0.01601326 8.7185884,-4.0017078 c -1.7454984,2.3720609 -1.7354408,5.6174519 -6e-7,8.035443 z"
         style="fill:#1b3dfe;fill-opacity:1;fill-rule:evenodd;stroke:#1b3dfe;stroke-width:0.625;stroke-linejoin:round;stroke-opacity:1"
         id="path6045" />
    </marker>
    <marker
       inkscape:isstock="true"
       style="overflow:visible"
       id="marker6027"
       refX="0"
       refY="0"
       orient="auto"
       inkscape:stockid="Arrow2Lend">
      <path
         transform="matrix(-1.1,0,0,-1.1,-1.1,0)"
         d="M 8.7185878,4.0337352 -2.2072895,0.01601326 8.7185884,-4.0017078 c -1.7454984,2.3720609 -1.7354408,5.6174519 -6e-7,8.035443 z"
         style="fill:#1b3dfe;fill-opacity:1;fill-rule:evenodd;stroke:#1b3dfe;stroke-width:0.625;stroke-linejoin:round;stroke-opacity:1"
         id="path6025" />
    </marker>
    <marker
       inkscape:isstock="true"
       style="overflow:visible"
       id="marker6009"
       refX="0"
       refY="0"
       orient="auto"
       inkscape:stockid="Arrow2Lend">
      <path
         transform="matrix(-1.1,0,0,-1.1,-1.1,0)"
         d="M 8.7185878,4.0337352 -2.2072895,0.01601326 8.7185884,-4.0017078 c -1.7454984,2.3720609 -1.7354408,5.6174519 -6e-7,8.035443 z"
         style="fill:#1b3dfe;fill-opacity:1;fill-rule:evenodd;stroke:#1b3dfe;stroke-width:0.625;stroke-linejoin:round;stroke-opacity:1"
         id="path6007" />
    </marker>
    <marker
       inkscape:isstock="true"
       style="overflow:visible"
       id="marker5999"
       refX="0"
       refY="0"
       orient="auto"
       inkscape:stockid="Arrow2Lend">
      <path
         transform="matrix(-1.1,0,0,-1.1,-1.1,0)"
         d="M 8.7185878,4.0337352 -2.2072895,0.01601326 8.7185884,-4.0017078 c -1.7454984,2.3720609 -1.7354408,5.6174519 -6e-7,8.035443 z"
         style="fill:#1b3dfe;fill-opacity:1;fill-rule:evenodd;stroke:#1b3dfe;stroke-width:0.625;stroke-linejoin:round;stroke-opacity:1"
         id="path5997" />
    </marker>
    <marker
       inkscape:stockid="Arrow2Lstart"
       orient="auto"
       refY="0"
       refX="0"
       id="Arrow2Lstart"
       style="overflow:visible"
       inkscape:isstock="true">
      <path
         id="path5240"
         style="fill:#ff0a00;fill-opacity:0.623529;fill-rule:evenodd;stroke:#ff0a00;stroke-width:0.625;stroke-linejoin:round;stroke-opacity:0.623529"
         d="M 8.7185878,4.0337352 -2.2072895,0.01601326 8.7185884,-4.0017078 c -1.7454984,2.3720609 -1.7354408,5.6174519 -6e-7,8.035443 z"
         transform="matrix(1.1,0,0,1.1,1.1,0)" />
    </marker>
    <marker
       inkscape:stockid="Arrow1Mstart"
       orient="auto"
       refY="0"
       refX="0"
       id="Arrow1Mstart"
       style="overflow:visible"
       inkscape:isstock="true">
      <path
         id="path5228"
         d="M 0,0 5,-5 -12.5,0 5,5 Z"
         style="fill:#000000;fill-opacity:1;fill-rule:evenodd;stroke:#000000;stroke-width:1pt;stroke-opacity:1"
         transform="matrix(0.4,0,0,0.4,4,0)" />
    </marker>
    <marker
       inkscape:isstock="true"
       style="overflow:visible"
       id="marker5508"
       refX="0"
       refY="0"
       orient="auto"
       inkscape:stockid="Arrow2Lend">
      <path
         transform="matrix(-1.1,0,0,-1.1,-1.1,0)"
         d="M 8.7185878,4.0337352 -2.2072895,0.01601326 8.7185884,-4.0017078 c -1.7454984,2.3720609 -1.7354408,5.6174519 -6e-7,8.035443 z"
         style="fill:#000000;fill-opacity:1;fill-rule:evenodd;stroke:#000000;stroke-width:0.625;stroke-linejoin:round;stroke-opacity:1"
         id="path5506" />
    </marker>
    <marker
       inkscape:stockid="Arrow2Lend"
       orient="auto"
       refY="0"
       refX="0"
       id="Arrow2Lend"
       style="overflow:visible"
       inkscape:isstock="true"
       inkscape:collect="always">
      <path
         id="path5243"
         style="fill:#1b3dfe;fill-opacity:1;fill-rule:evenodd;stroke:#1b3dfe;stroke-width:0.625;stroke-linejoin:round;stroke-opacity:1"
         d="M 8.7185878,4.0337352 -2.2072895,0.01601326 8.7185884,-4.0017078 c -1.7454984,2.3720609 -1.7354408,5.6174519 -6e-7,8.035443 z"
         transform="matrix(-1.1,0,0,-1.1,-1.1,0)" />
    </marker>
    <marker
       inkscape:stockid="Arrow2Lend"
       orient="auto"
       refY="0"
       refX="0"
       id="Arrow2Lend-5"
       style="overflow:visible"
       inkscape:isstock="true">
      <path
         inkscape:connector-curvature="0"
         id="path5243-3"
         style="fill:#000000;fill-opacity:1;fill-rule:evenodd;stroke:#000000;stroke-width:0.625;stroke-linejoin:round;stroke-opacity:1"
         d="M 8.7185878,4.0337352 -2.2072895,0.01601326 8.7185884,-4.0017078 c -1.7454984,2.3720609 -1.7354408,5.6174519 -6e-7,8.035443 z"
         transform="matrix(-1.1,0,0,-1.1,-1.1,0)" />
    </marker>
  </defs>
  <sodipodi:namedview
     id="base"
     pagecolor="#ffffff"
     bordercolor="#666666"
     borderopacity="1.0"
     inkscape:pageopacity="0.0"
     inkscape:pageshadow="2"
     inkscape:zoom="0.49497475"
     inkscape:cx="252.53813"
     inkscape:cy="492.95444"
     inkscape:document-units="mm"
     inkscape:current-layer="layer1"
     showgrid="false"
     inkscape:window-width="1440"
     inkscape:window-height="851"
     inkscape:window-x="0"
     inkscape:window-y="25"
     inkscape:window-maximized="1"
     inkscape:showpageshadow="2"
     inkscape:pagecheckerboard="0"
     inkscape:deskcolor="#d1d1d1" />
  <metadata
     id="metadata5155">
    <rdf:RDF>
      <cc:Work
         rdf:about="">
        <dc:format>image/svg+xml</dc:format>
        <dc:type
           rdf:resource="http://purl.org/dc/dcmitype/StillImage" />
      </cc:Work>
    </rdf:RDF>
  </metadata>
  <g
     inkscape:label="Layer 1"
     inkscape:groupmode="layer"
     id="layer1">
    <path
       sodipodi:nodetypes="cc"
       inkscape:connector-curvature="0"
       id="path5205"
       d="m 114.08581,85.306033 c 28.47242,-19.037141 54.04979,-17.229899 77.48512,0"
       style="fill:none;stroke:#1b3dfe;stroke-width:0.6;stroke-linecap:butt;stroke-linejoin:miter;stroke-miterlimit:4;stroke-dasharray:none;stroke-opacity:1;marker-end:url(#Arrow2Lend)" />
    <path
       sodipodi:nodetypes="cc"
       inkscape:connector-curvature="0"
       id="path5205-9"
       d="m 114.5357,99.251043 c 27.62355,24.557427 59.75655,18.113707 77.48512,0"
       style="fill:none;stroke:#ff0a00;stroke-width:0.6;stroke-linecap:butt;stroke-linejoin:miter;stroke-miterlimit:4;stroke-dasharray:none;stroke-opacity:0.623529;marker-start:url(#Arrow2Lstart)" />
    <text
       id="text5845"
       y="67.692337"
       x="137.05057"
       style="font-style:normal;font-weight:normal;font-size:6.35px;line-height:1.25;font-family:sans-serif;letter-spacing:0px;word-spacing:0px;fill:#1b3dfe;fill-opacity:1;stroke:none;stroke-width:0.264583"
       xml:space="preserve"><tspan
         style="fill:#1b3dfe;fill-opacity:1;stroke-width:0.264583"
         y="67.692337"
         x="137.05057"
         id="tspan5843"
         sodipodi:role="line">Simulations</tspan></text>
    <text
       id="text5849"
       y="125.74948"
       x="139.58684"
       style="font-style:normal;font-weight:normal;font-size:6.35px;line-height:1.25;font-family:sans-serif;letter-spacing:0px;word-spacing:0px;fill:#ff0900;fill-opacity:1;stroke:none;stroke-width:0.264583"
       xml:space="preserve"><tspan
         style="fill:#ff0900;fill-opacity:1;stroke-width:0.264583"
         y="125.74948"
         x="139.58684"
         id="tspan5847"
         sodipodi:role="line">Inference</tspan></text>
    <g
       transform="translate(35.588709,36.789703)"
       id="g5903">
      <path
         id="path5535-1"
         d="m 147.42346,53.341163 v 0.24712 h 0.18813 c 0.61382,0 0.62817,0.08609 0.62817,0.373071 v 4.185098 c 0,0.286978 -0.0144,0.373072 -0.62817,0.373072 h -0.18813 v 0.24712 h 2.90645 l -0.21364,-0.24712 h -0.80513 c -0.37148,0 -0.38901,-0.05421 -0.38901,-0.315676 v -4.296701 c 0,-0.264657 0.0175,-0.318864 0.38901,-0.318864 h 0.79397 c 0.49424,0 1.04269,0.173781 1.44765,0.739766 0.34118,0.467136 0.41133,1.151101 0.41133,1.771292 0,0.881661 -0.14986,1.356769 -0.43525,1.745784 -0.15943,0.213639 -0.61062,0.674399 -1.41257,0.674399 l 0.21364,0.24712 c 1.33286,0 2.42816,-1.175016 2.42816,-2.667303 0,-1.509824 -1.06979,-2.758178 -2.42816,-2.758178 z"
         inkscape:connector-curvature="0"
         style="font-style:normal;font-variant:normal;font-weight:normal;font-stretch:normal;letter-spacing:normal;word-spacing:normal;text-anchor:start;fill:#0daf29;fill-opacity:1;fill-rule:evenodd;stroke:#000000;stroke-width:0;stroke-linecap:butt;stroke-linejoin:miter;stroke-miterlimit:10.433;stroke-dasharray:none;stroke-dashoffset:0;stroke-opacity:1" />
      <path
         id="path5537-2"
         d="m 156.14122,53.239126 -0.005,-0.0096 -0.003,-0.0096 -0.003,-0.0096 -0.003,-0.008 -0.003,-0.0096 -0.003,-0.008 -0.003,-0.008 -0.005,-0.0064 -0.003,-0.008 -0.003,-0.0064 -0.003,-0.008 -0.003,-0.0064 -0.005,-0.0048 -0.003,-0.0064 -0.005,-0.0048 -0.005,-0.0064 -0.005,-0.0048 -0.005,-0.0048 -0.005,-0.0032 -0.006,-0.0048 -0.006,-0.0032 -0.006,-0.0032 -0.006,-0.0032 -0.008,-0.0032 -0.006,-0.0016 -0.01,-0.0016 -0.008,-0.0032 h -0.01 l -0.01,-0.0016 -0.01,-0.0016 h -0.0112 -0.006 -0.005 c -0.12756,0 -0.15307,0.04783 -0.19292,0.159432 l -1.64374,4.751082 c -0.1419,0.403364 -0.46076,0.522938 -0.88963,0.529316 v 0.24712 c 0.18175,-0.008 0.52293,-0.02551 0.80991,-0.02551 0.24712,0 0.66005,0.01754 0.91355,0.02551 v -0.246552 c -0.39539,0 -0.59468,-0.199291 -0.59468,-0.403364 0,-0.02392 0.008,-0.103631 0.0144,-0.119574 l 0.36669,-1.041093 0.0877,-0.24712 0.88963,-2.579615 0.89601,2.579615 h -1.78564 l -0.0877,0.24712 h 1.96102 l 0.4209,1.216468 c 0.01,0.03189 0.0239,0.07972 0.0239,0.108414 0,0.239149 -0.44481,0.239149 -0.66005,0.239149 v 0.24712 c 0.28698,-0.02551 0.84181,-0.02551 1.14632,-0.02551 0.34119,0 0.70469,0.01116 1.0395,0.02551 v -0.24712 h -0.14189 c -0.4783,0 -0.58831,-0.05421 -0.676,-0.315676 z"
         inkscape:connector-curvature="0"
         style="font-style:normal;font-variant:normal;font-weight:normal;font-stretch:normal;letter-spacing:normal;word-spacing:normal;text-anchor:start;fill:#0daf29;fill-opacity:1;fill-rule:evenodd;stroke:#000000;stroke-width:0;stroke-linecap:butt;stroke-linejoin:miter;stroke-miterlimit:10.433;stroke-dasharray:none;stroke-dashoffset:0;stroke-opacity:1" />
      <path
         id="path5539-7"
         d="m 163.55004,53.388992 h -4.85471 l -0.14987,1.788831 h 0.19929 c 0.11001,-1.281836 0.22958,-1.543305 1.42692,-1.543305 0.14508,0 0.35235,0 0.43206,0.01754 0.16741,0.03029 0.16741,0.117979 0.16741,0.301327 v 4.185097 c 0,0.27263 0,0.381044 -0.83543,0.381044 h -0.31886 v 0.24712 c 0.32683,-0.02551 1.13675,-0.02551 1.50185,-0.02551 0.36669,0 1.18299,0 1.50982,0.02551 v -0.247122 h -0.31886 c -0.83383,0 -0.83383,-0.108414 -0.83383,-0.381044 v -4.185097 c 0,-0.159433 0,-0.271035 0.14348,-0.301327 0.0877,-0.01754 0.30133,-0.01754 0.45439,-0.01754 1.19733,0 1.31691,0.261469 1.42692,1.543305 h 0.19929 z"
         inkscape:connector-curvature="0"
         style="font-style:normal;font-variant:normal;font-weight:normal;font-stretch:normal;letter-spacing:normal;word-spacing:normal;text-anchor:start;fill:#0daf29;fill-opacity:1;fill-rule:evenodd;stroke:#000000;stroke-width:0;stroke-linecap:butt;stroke-linejoin:miter;stroke-miterlimit:10.433;stroke-dasharray:none;stroke-dashoffset:0;stroke-opacity:1" />
      <path
         id="path5541-0"
         d="m 166.48998,53.239126 -0.003,-0.0096 -0.005,-0.0096 -0.003,-0.0096 -0.003,-0.008 -0.003,-0.0096 -0.003,-0.008 -0.003,-0.008 -0.003,-0.0064 -0.003,-0.008 -0.003,-0.0064 -0.005,-0.008 -0.003,-0.0064 -0.005,-0.0048 -0.003,-0.0064 -0.005,-0.0048 -0.005,-0.0064 -0.005,-0.0048 -0.005,-0.0048 -0.005,-0.0032 -0.006,-0.0048 -0.005,-0.0032 -0.006,-0.0032 -0.008,-0.0032 -0.006,-0.0032 -0.008,-0.0016 -0.008,-0.0016 -0.01,-0.0032 h -0.008 l -0.01,-0.0016 -0.0112,-0.0016 h -0.0112 -0.005 -0.006 c -0.12755,0 -0.15146,0.04783 -0.19132,0.159432 l -1.64535,4.751082 c -0.1419,0.403364 -0.46076,0.522938 -0.88804,0.529316 v 0.24712 c 0.18175,-0.008 0.52294,-0.02551 0.80832,-0.02551 0.24712,0 0.66005,0.01754 0.91514,0.02551 v -0.246552 c -0.39698,0 -0.59627,-0.199291 -0.59627,-0.403364 0,-0.02392 0.008,-0.103631 0.0159,-0.119574 l 0.3651,-1.041093 0.0877,-0.24712 0.88964,-2.579615 0.89601,2.579615 h -1.78565 l -0.0877,0.24712 h 1.96103 l 0.4209,1.216468 c 0.01,0.03189 0.0255,0.07972 0.0255,0.108414 0,0.239149 -0.44641,0.239149 -0.66005,0.239149 v 0.24712 c 0.28538,-0.02551 0.8418,-0.02551 1.14472,-0.02551 0.34278,0 0.70629,0.01116 1.0395,0.02551 v -0.24712 h -0.14189 c -0.4783,0 -0.58831,-0.05421 -0.6744,-0.315676 z"
         inkscape:connector-curvature="0"
         style="font-style:normal;font-variant:normal;font-weight:normal;font-stretch:normal;letter-spacing:normal;word-spacing:normal;text-anchor:start;fill:#0daf29;fill-opacity:1;fill-rule:evenodd;stroke:#000000;stroke-width:0;stroke-linecap:butt;stroke-linejoin:miter;stroke-miterlimit:10.433;stroke-dasharray:none;stroke-dashoffset:0;stroke-opacity:1" />
    </g>
    <g
       id="g5937"
       transform="translate(54.743549,25.297113)">
      <path
         id="path5545-9"
         d="m 46.581655,64.876535 -0.003,-0.008 -0.003,-0.008 -0.003,-0.0064 -0.003,-0.008 -0.006,-0.01435 -0.006,-0.01275 -0.005,-0.01116 -0.006,-0.01116 -0.005,-0.01116 -0.006,-0.0096 -0.005,-0.008 -0.006,-0.008 -0.006,-0.008 -0.005,-0.0064 -0.006,-0.0064 -0.006,-0.0064 -0.006,-0.0048 -0.008,-0.0032 -0.006,-0.0048 -0.008,-0.0032 -0.008,-0.0032 -0.008,-0.0016 -0.01,-0.0032 -0.01,-0.0016 -0.01,-0.0016 h -0.0112 l -0.0112,-0.0016 h -0.0112 l -0.0128,-0.0016 h -0.0128 -0.0144 -0.0144 -0.0159 -0.0175 -1.34242 v 0.24712 h 0.19132 c 0.61062,0 0.62657,0.08609 0.62657,0.373071 v 3.971459 c 0,0.213639 0,0.586711 -0.81789,0.586711 v 0.24712 c 0.279,-0.008 0.66802,-0.02551 0.92949,-0.02551 0.26147,0 0.65208,0.01754 0.92949,0.02551 v -0.246721 c -0.81789,0 -0.81789,-0.373072 -0.81789,-0.586711 v -4.280758 h 0.008 l 1.91318,4.940807 c 0.0399,0.102036 0.0797,0.173781 0.15943,0.173781 0.0877,0 0.1116,-0.06537 0.1419,-0.151461 l 1.95464,-5.0269 h 0.008 v 4.558169 c 0,0.286978 -0.0143,0.373072 -0.62656,0.373072 h -0.18973 v 0.24712 c 0.29336,-0.02551 0.83224,-0.02551 1.14313,-0.02551 0.3093,0 0.84181,0 1.13516,0.02551 v -0.24712 h -0.19132 c -0.61062,0 -0.62816,-0.08609 -0.62816,-0.373072 v -4.185098 c 0,-0.286978 0.0175,-0.373071 0.62816,-0.373071 h 0.19132 v -0.24712 h -1.34242 c -0.20726,0 -0.20726,0.008 -0.26147,0.15146 l -1.741,4.472076 z"
         inkscape:connector-curvature="0"
         style="font-style:normal;font-variant:normal;font-weight:normal;font-stretch:normal;letter-spacing:normal;word-spacing:normal;text-anchor:start;fill:#b909bb;fill-opacity:1;fill-rule:evenodd;stroke:#000000;stroke-width:0;stroke-linecap:butt;stroke-linejoin:miter;stroke-miterlimit:10.433;stroke-dasharray:none;stroke-dashoffset:0;stroke-opacity:1" />
      <path
         id="path5547-3"
         d="m 57.684525,67.435423 -0.003,-0.15146 -0.0112,-0.148273 -0.0175,-0.146677 -0.0223,-0.143489 -0.0303,-0.141895 -0.0367,-0.137112 -0.0415,-0.135517 -0.0478,-0.132329 -0.0542,-0.12914 -0.059,-0.125952 -0.0638,-0.121168 -0.0685,-0.11798 -0.0749,-0.114791 -0.0781,-0.108414 -0.0845,-0.105226 -0.0877,-0.102036 -0.0925,-0.09566 -0.0957,-0.09088 -0.10045,-0.08609 -0.10363,-0.07972 -0.10841,-0.07493 -0.11001,-0.07015 -0.11479,-0.06377 -0.11639,-0.0574 -0.11957,-0.05261 -0.12276,-0.04464 -0.12436,-0.03986 -0.12755,-0.03189 -0.12914,-0.02551 -0.13232,-0.01754 -0.13233,-0.01116 -0.13552,-0.0032 v 0.199291 c 0.69353,0 1.82869,0.562796 1.82869,2.595558 0,2.104506 -1.08733,2.772527 -1.820721,2.772527 v 0 c -0.762089,0 -1.825499,-0.698313 -1.825499,-2.772527 0,-2.055083 1.16067,-2.595558 1.81753,-2.595558 v -0.199291 c -1.42214,0 -2.63542,1.269081 -2.63542,2.906451 0,1.629398 1.22444,2.866593 2.63542,2.866593 1.446049,0 2.64658,-1.262704 2.64658,-2.866593 z"
         inkscape:connector-curvature="0"
         style="font-style:normal;font-variant:normal;font-weight:normal;font-stretch:normal;letter-spacing:normal;word-spacing:normal;text-anchor:start;fill:#b909bb;fill-opacity:1;fill-rule:evenodd;stroke:#000000;stroke-width:0;stroke-linecap:butt;stroke-linejoin:miter;stroke-miterlimit:10.433;stroke-dasharray:none;stroke-dashoffset:0;stroke-opacity:1" />
      <path
         id="path5549-6"
         d="m 58.414725,64.702754 v 0.24712 h 0.18973 c 0.61222,0 0.62816,0.08609 0.62816,0.373071 v 4.185098 c 0,0.286978 -0.0159,0.373072 -0.62816,0.373072 h -0.18973 v 0.24712 h 2.90805 l -0.21364,-0.24712 h -0.80513 c -0.37148,0 -0.38902,-0.05421 -0.38902,-0.315676 v -4.296701 c 0,-0.264657 0.0175,-0.318864 0.38902,-0.318864 h 0.79397 c 0.49424,0 1.04109,0.173781 1.44765,0.739766 0.34118,0.467136 0.41133,1.151101 0.41133,1.771292 0,0.881661 -0.14987,1.356769 -0.43684,1.745784 -0.15944,0.213639 -0.60903,0.674399 -1.41098,0.674399 l 0.21364,0.24712 c 1.33285,0 2.42815,-1.175016 2.42815,-2.667303 0,-1.509824 -1.07138,-2.758178 -2.42815,-2.758178 z"
         inkscape:connector-curvature="0"
         style="font-style:normal;font-variant:normal;font-weight:normal;font-stretch:normal;letter-spacing:normal;word-spacing:normal;text-anchor:start;fill:#b909bb;fill-opacity:1;fill-rule:evenodd;stroke:#000000;stroke-width:0;stroke-linecap:butt;stroke-linejoin:miter;stroke-miterlimit:10.433;stroke-dasharray:none;stroke-dashoffset:0;stroke-opacity:1" />
      <path
         id="path5551-0"
         d="m 65.281475,69.508043 v 0.02551 0.02551 0.02391 l -0.002,0.02392 -0.002,0.02073 -0.002,0.02073 -0.003,0.02073 -0.003,0.01754 -0.005,0.01913 -0.006,0.01594 -0.006,0.01594 -0.008,0.01435 -0.01,0.01435 -0.0112,0.01275 -0.0128,0.01275 -0.0143,0.01116 -0.016,0.0096 -0.0175,0.0096 -0.01,0.0048 -0.0112,0.0048 -0.01,0.0032 -0.0128,0.0048 -0.0112,0.0032 -0.0128,0.0032 -0.0127,0.0032 -0.0128,0.0032 -0.0144,0.0032 -0.0159,0.0032 -0.0143,0.0032 -0.0159,0.0016 -0.0175,0.0016 -0.0175,0.0032 -0.0175,0.0016 -0.0191,0.0016 -0.0191,0.0016 -0.0207,0.0016 -0.0207,0.0016 -0.0207,0.0016 h -0.0239 l -0.0223,0.0016 h -0.0239 l -0.0255,0.0016 h -0.0255 -0.0255 -0.0287 -0.0271 -0.19292 v 0.24712 h 4.58368 l 0.33481,-2.0503 h -0.199252 c -0.1977,1.222846 -0.38104,1.80318 -1.74738,1.80318 h -1.05544 c -0.37467,0 -0.39061,-0.05421 -0.39061,-0.315676 v -2.122353 h 0.71426 c 0.77165,0 0.85934,0.253497 0.85934,0.92949 h 0.1961 v -2.105972 h -0.1961 c 0,0.685559 -0.0877,0.929491 -0.85934,0.929491 h -0.71426 v -1.905216 c 0,-0.261469 0.0159,-0.317271 0.39061,-0.317271 h 1.02355 c 1.21647,0 1.43011,0.436845 1.55766,1.540116 h 0.19929 l -0.2248,-1.785641 h -4.47208 v 0.245525 h 0.19292 c 0.61062,0 0.62656,0.08769 0.62656,0.371478 z"
         inkscape:connector-curvature="0"
         style="font-style:normal;font-variant:normal;font-weight:normal;font-stretch:normal;letter-spacing:normal;word-spacing:normal;text-anchor:start;fill:#b909bb;fill-opacity:1;fill-rule:evenodd;stroke:#000000;stroke-width:0;stroke-linecap:butt;stroke-linejoin:miter;stroke-miterlimit:10.433;stroke-dasharray:none;stroke-dashoffset:0;stroke-opacity:1" />
      <path
         id="path5553-6"
         d="m 74.238374,68.077935 h -0.199279 c -0.0877,0.813105 -0.19929,1.80318 -1.597509,1.80318 h -0.648891 c -0.37468,0 -0.3922,-0.05421 -0.3922,-0.315676 v -4.234522 c 0,-0.269441 0,-0.381043 0.75569,-0.381043 h 0.26307 v -0.24712 c -0.28539,0.02551 -1.00761,0.02551 -1.33445,0.02551 -0.3093,0 -0.92948,0 -1.20849,-0.02551 v 0.24712 h 0.19131 c 0.61063,0 0.62818,0.08609 0.62818,0.373071 v 4.185098 c 0,0.286978 -0.0175,0.373072 -0.62818,0.373072 h -0.19131 v 0.24712 h 4.137269 z"
         inkscape:connector-curvature="0"
         style="font-style:normal;font-variant:normal;font-weight:normal;font-stretch:normal;letter-spacing:normal;word-spacing:normal;text-anchor:start;fill:#b909bb;fill-opacity:1;fill-rule:evenodd;stroke:#000000;stroke-width:0;stroke-linecap:butt;stroke-linejoin:miter;stroke-miterlimit:10.433;stroke-dasharray:none;stroke-dashoffset:0;stroke-opacity:1" />
    </g>
    <rect
       style="opacity:1;vector-effect:none;fill:none;fill-opacity:1;stroke:#1b3dfe;stroke-width:2.26772;stroke-linecap:butt;stroke-linejoin:miter;stroke-miterlimit:4;stroke-dasharray:none;stroke-dashoffset:0;stroke-opacity:1;marker-end:url(#marker6009)"
       id="rect6001"
       width="0"
       height="0"
       x="0"
       y="0"
       transform="scale(0.26458333)" />
    <g
       id="g3095"
       transform="translate(170.70528,46.520813)">
      <path
         style="font-style:normal;font-variant:normal;font-weight:normal;font-stretch:normal;letter-spacing:normal;word-spacing:normal;text-anchor:start;fill:#000000;fill-opacity:1;fill-rule:evenodd;stroke:#000000;stroke-width:0;stroke-linecap:butt;stroke-linejoin:miter;stroke-miterlimit:10.433;stroke-dasharray:none;stroke-dashoffset:0;stroke-opacity:1"
         inkscape:connector-curvature="0"
         d="m 12.489922,86.585857 -0.02392,-0.20407 V 84.23742 c 0,-0.26465 0.01754,-0.31886 0.387421,-0.31886 h 0.707879 c 1.262704,0 1.262704,0.8418 1.262704,1.23082 0,0.37307 0,1.232407 -1.262704,1.232407 h -1.0953 l 0.02392,0.20407 h 1.34242 c 0.951811,0 1.811151,-0.642507 1.811151,-1.436477 0,-0.77803 -0.786001,-1.47794 -1.874924,-1.47794 h -2.802821 v 0.24712 h 0.189726 c 0.61222,0 0.626569,0.0861 0.626569,0.37307 v 4.185097 c 0,0.28698 -0.01435,0.37307 -0.626569,0.37307 h -0.189726 v 0.24712 c 0.275819,-0.0255 0.864124,-0.0255 1.165451,-0.0255 0.301327,0 0.899199,0 1.176611,0.0255 v -0.24712 h -0.189725 c -0.61222,0 -0.628163,-0.0861 -0.628163,-0.37307 z"
         id="path5613" />
      <path
         style="font-style:normal;font-variant:normal;font-weight:normal;font-stretch:normal;letter-spacing:normal;word-spacing:normal;text-anchor:start;fill:#000000;fill-opacity:1;fill-rule:evenodd;stroke:#000000;stroke-width:0;stroke-linecap:butt;stroke-linejoin:miter;stroke-miterlimit:10.433;stroke-dasharray:none;stroke-dashoffset:0;stroke-opacity:1"
         inkscape:connector-curvature="0"
         d="M 17.425946,86.458317 V 85.58781 l -1.103271,0.0861 v 0.24712 c 0.554824,0 0.620191,0.0542 0.620191,0.443217 v 2.13002 c 0,0.35553 -0.08769,0.35553 -0.620191,0.35553 v 0.24712 c 0.310893,-0.008 0.68237,-0.0255 0.905575,-0.0255 0.31727,0 0.690342,0 1.009207,0.0255 v -0.24712 h -0.16581 c -0.588305,0 -0.605843,-0.0861 -0.605843,-0.37307 v -1.22285 c 0,-0.7844 0.333214,-1.492277 0.939056,-1.492277 0.05421,0 0.07015,0 0.08769,0.008 -0.02551,0.006 -0.184941,0.10203 -0.184941,0.3077 0,0.224797 0.167404,0.341187 0.344374,0.341187 0.141894,0 0.341185,-0.0941 0.341185,-0.347567 0,-0.25509 -0.24712,-0.48308 -0.588306,-0.48308 -0.580333,0 -0.867311,0.52932 -0.978914,0.870507 z"
         id="path5615" />
      <path
         style="font-style:normal;font-variant:normal;font-weight:normal;font-stretch:normal;letter-spacing:normal;word-spacing:normal;text-anchor:start;fill:#000000;fill-opacity:1;fill-rule:evenodd;stroke:#000000;stroke-width:0;stroke-linecap:butt;stroke-linejoin:miter;stroke-miterlimit:10.433;stroke-dasharray:none;stroke-dashoffset:0;stroke-opacity:1"
         inkscape:connector-curvature="0"
         d="m 22.959841,87.397367 -0.0016,-0.0941 -0.0064,-0.0941 -0.01116,-0.0925 -0.01594,-0.0909 -0.02073,-0.0893 -0.02392,-0.0877 -0.0271,-0.0861 -0.03189,-0.0845 -0.03508,-0.0813 -0.03986,-0.0797 -0.04145,-0.0781 -0.04624,-0.0749 -0.04942,-0.0733 -0.05261,-0.0702 -0.0558,-0.0685 -0.05739,-0.0638 -0.06218,-0.0622 -0.06377,-0.059 -0.06537,-0.0558 -0.07015,-0.051 -0.07015,-0.0494 -0.07334,-0.0446 -0.07653,-0.0414 -0.07812,-0.0383 -0.07972,-0.0335 -0.08131,-0.0287 -0.0829,-0.0255 -0.0845,-0.0207 -0.08609,-0.0175 -0.08609,-0.0112 -0.08928,-0.008 -0.08928,-0.002 -0.008,0.17378 c 0.349157,0 0.690342,0.17537 0.897604,0.51656 0.205668,0.341177 0.205668,0.801937 0.205668,1.103267 0,0.28698 0,0.71426 -0.173782,1.06341 -0.173781,0.35872 -0.522938,0.58831 -0.921518,0.58831 v 0 c -0.341185,0 -0.690342,-0.16741 -0.903982,-0.53091 -0.19929,-0.35075 -0.19929,-0.83383 -0.19929,-1.12081 0,-0.3093 0,-0.73817 0.18813,-1.08892 0.216828,-0.363507 0.588305,-0.530907 0.90717,-0.530907 l 0.008,-0.17378 c -0.991669,0 -1.763322,0.864117 -1.763322,1.857377 0,1.02515 0.82586,1.78724 1.75535,1.78724 0.961377,0 1.763321,-0.77803 1.763321,-1.78724 z"
         id="path5617" />
      <path
         style="font-style:normal;font-variant:normal;font-weight:normal;font-stretch:normal;letter-spacing:normal;word-spacing:normal;text-anchor:start;fill:#000000;fill-opacity:1;fill-rule:evenodd;stroke:#000000;stroke-width:0;stroke-linecap:butt;stroke-linejoin:miter;stroke-miterlimit:10.433;stroke-dasharray:none;stroke-dashoffset:0;stroke-opacity:1"
         inkscape:connector-curvature="0"
         d="m 24.562136,86.10278 v -2.51903 l -1.14313,0.0877 v 0.24712 c 0.556419,0 0.620192,0.0542 0.620192,0.44481 v 4.733547 h 0.19929 c 0.008,-0.008 0.07015,-0.11957 0.28379,-0.49265 0.119574,0.18335 0.454382,0.58034 1.042687,0.58034 l -0.03348,-0.17538 c -0.355534,0 -0.642512,-0.19132 -0.832236,-0.48467 -0.111603,-0.16741 -0.111603,-0.18973 -0.111603,-0.33162 v 0 -1.63737 c 0,-0.15146 0,-0.15943 0.08769,-0.28538 0.309298,-0.446417 0.747737,-0.508587 0.935867,-0.508587 0.358723,0 0.645701,0.20726 0.835426,0.508587 0.205667,0.32524 0.231176,0.77643 0.231176,1.10327 0,0.29335 -0.01754,0.77005 -0.24712,1.12878 -0.165809,0.24552 -0.467136,0.50699 -0.899198,0.50699 l 0.03348,0.17538 c 0.945434,0 1.771293,-0.77803 1.771293,-1.80318 0,-1.00921 -0.77803,-1.793617 -1.6852,-1.793617 -0.617003,0 -0.961376,0.37308 -1.088922,0.51497 z"
         id="path5619" />
      <path
         style="font-style:normal;font-variant:normal;font-weight:normal;font-stretch:normal;letter-spacing:normal;word-spacing:normal;text-anchor:start;fill:#000000;fill-opacity:1;fill-rule:evenodd;stroke:#000000;stroke-width:0;stroke-linecap:butt;stroke-linejoin:miter;stroke-miterlimit:10.433;stroke-dasharray:none;stroke-dashoffset:0;stroke-opacity:1"
         inkscape:connector-curvature="0"
         d="m 30.225171,91.002137 v -0.003 -0.005 -0.002 -0.003 -0.002 l -0.0016,-0.003 v -0.002 l -0.0016,-0.003 -0.0016,-0.003 -0.0016,-0.003 -0.0016,-0.003 -0.0032,-0.005 -0.0016,-0.003 -0.0032,-0.005 -0.0032,-0.005 -0.0048,-0.005 -0.0032,-0.005 -0.0048,-0.006 -0.0032,-0.003 -0.0016,-0.003 -0.0032,-0.003 -0.0032,-0.003 -0.0032,-0.003 -0.0032,-0.005 -0.0032,-0.003 -0.0032,-0.003 -0.0032,-0.005 -0.0048,-0.003 -0.0032,-0.005 -0.0048,-0.005 -0.0048,-0.005 -0.0032,-0.005 -0.0048,-0.005 -0.0048,-0.005 -0.0048,-0.005 -0.0048,-0.005 -0.0064,-0.006 -0.0048,-0.005 -0.0064,-0.006 -0.0048,-0.005 -0.0064,-0.006 -0.0064,-0.006 c -0.991669,-1.00123 -1.245166,-2.50149 -1.245166,-3.71636 0,-1.382277 0.301327,-2.766147 1.277052,-3.756227 0.102037,-0.0973 0.102037,-0.11319 0.102037,-0.13711 0,-0.0558 -0.0287,-0.0781 -0.07653,-0.0781 -0.07972,0 -0.795568,0.53888 -1.262704,1.54649 -0.406553,0.87529 -0.500618,1.756947 -0.500618,2.424967 0,0.62019 0.08609,1.57838 0.522938,2.47758 0.475109,0.97732 1.160668,1.49228 1.240384,1.49228 0.04783,0 0.07653,-0.0223 0.07653,-0.0797 z"
         id="path5621" />
      <path
         style="font-style:normal;font-variant:normal;font-weight:normal;font-stretch:normal;letter-spacing:normal;word-spacing:normal;text-anchor:start;fill:#b909bb;fill-opacity:1;fill-rule:evenodd;stroke:#000000;stroke-width:0;stroke-linecap:butt;stroke-linejoin:miter;stroke-miterlimit:10.433;stroke-dasharray:none;stroke-dashoffset:0;stroke-opacity:1"
         inkscape:connector-curvature="0"
         d="m 32.591146,83.84522 -0.0032,-0.008 -0.0032,-0.008 -0.0032,-0.006 -0.0032,-0.008 -0.0064,-0.0143 -0.0064,-0.0128 -0.0048,-0.0112 -0.0064,-0.0112 -0.0048,-0.0112 -0.0064,-0.01 -0.0048,-0.008 -0.0064,-0.008 -0.0064,-0.008 -0.0048,-0.006 -0.0064,-0.006 -0.0064,-0.006 -0.0064,-0.005 -0.008,-0.003 -0.0064,-0.005 -0.008,-0.003 -0.008,-0.003 -0.008,-0.002 -0.0096,-0.003 -0.0096,-0.002 -0.0096,-0.002 h -0.01116 l -0.01116,-0.002 h -0.01116 l -0.01275,-0.002 h -0.01275 -0.01435 -0.01594 -0.01435 -0.01754 -1.34242 v 0.24712 h 0.191319 c 0.610626,0 0.626569,0.0861 0.626569,0.37307 v 3.971457 c 0,0.21364 0,0.58671 -0.817888,0.58671 v 0.24712 c 0.279007,-0.008 0.668022,-0.0255 0.929491,-0.0255 0.261469,0 0.652078,0.0175 0.92949,0.0255 v -0.24712 c -0.817888,0 -0.817888,-0.37307 -0.817888,-0.58671 V 83.98141 h 0.008 l 1.913187,4.940807 c 0.03986,0.10204 0.07972,0.17378 0.159433,0.17378 0.08769,0 0.111602,-0.0654 0.141895,-0.15146 l 1.95464,-5.026897 h 0.008 v 4.558167 c 0,0.28698 -0.01435,0.37307 -0.628163,0.37307 h -0.18813 v 0.24712 c 0.293355,-0.0255 0.830642,-0.0255 1.143129,-0.0255 0.309299,0 0.841803,0 1.135158,0.0255 v -0.24712 H 37.46769 c -0.610626,0 -0.628164,-0.0861 -0.628164,-0.37307 V 84.29071 c 0,-0.28698 0.01754,-0.37307 0.628164,-0.37307 h 0.191318 v -0.24712 h -1.34242 c -0.207262,0 -0.207262,0.008 -0.261469,0.15146 l -1.741,4.472077 z"
         id="path5623" />
      <path
         style="font-style:normal;font-variant:normal;font-weight:normal;font-stretch:normal;letter-spacing:normal;word-spacing:normal;text-anchor:start;fill:#b909bb;fill-opacity:1;fill-rule:evenodd;stroke:#000000;stroke-width:0;stroke-linecap:butt;stroke-linejoin:miter;stroke-miterlimit:10.433;stroke-dasharray:none;stroke-dashoffset:0;stroke-opacity:1"
         inkscape:connector-curvature="0"
         d="m 43.694012,86.404107 -0.0032,-0.15146 -0.01116,-0.148267 -0.01754,-0.14668 -0.02232,-0.14349 -0.03029,-0.1419 -0.03667,-0.13711 -0.04145,-0.13552 -0.04783,-0.13232 -0.05421,-0.12914 -0.05899,-0.12596 -0.06377,-0.12116 -0.06856,-0.11798 -0.07493,-0.1148 -0.07972,-0.10841 -0.0829,-0.10522 -0.08769,-0.10204 -0.09247,-0.0957 -0.09566,-0.0909 -0.100442,-0.0861 -0.103631,-0.0797 -0.108414,-0.0749 -0.110008,-0.0702 -0.114791,-0.0638 -0.116386,-0.0574 -0.119574,-0.0526 -0.122763,-0.0446 -0.124357,-0.0399 -0.127546,-0.0319 -0.12914,-0.0255 -0.132329,-0.0175 -0.132329,-0.0112 -0.135517,-0.003 v 0.19929 c 0.69353,0 1.828688,0.56279 1.828688,2.595557 0,2.1045 -1.088922,2.77252 -1.820717,2.77252 v 0 c -0.762086,0 -1.8255,-0.69831 -1.8255,-2.77252 0,-2.055087 1.160668,-2.595557 1.817529,-2.595557 v -0.19929 c -1.422136,0 -2.635416,1.26908 -2.635416,2.906447 0,1.6294 1.222846,2.86659 2.635416,2.86659 1.446051,0 2.646576,-1.2627 2.646576,-2.86659 z"
         id="path5625" />
      <path
         style="font-style:normal;font-variant:normal;font-weight:normal;font-stretch:normal;letter-spacing:normal;word-spacing:normal;text-anchor:start;fill:#b909bb;fill-opacity:1;fill-rule:evenodd;stroke:#000000;stroke-width:0;stroke-linecap:butt;stroke-linejoin:miter;stroke-miterlimit:10.433;stroke-dasharray:none;stroke-dashoffset:0;stroke-opacity:1"
         inkscape:connector-curvature="0"
         d="m 44.424212,83.67144 v 0.24712 h 0.189724 c 0.61222,0 0.628163,0.0861 0.628163,0.37307 v 4.185097 c 0,0.28698 -0.01594,0.37307 -0.628163,0.37307 h -0.189724 v 0.24712 h 2.908047 l -0.21524,-0.24712 h -0.80353 c -0.37148,0 -0.38902,-0.0542 -0.38902,-0.31568 V 84.23742 c 0,-0.26465 0.0175,-0.31886 0.38902,-0.31886 h 0.79397 c 0.49264,0 1.04109,0.17378 1.44764,0.73976 0.34119,0.46714 0.41134,1.15111 0.41134,1.771297 0,0.88166 -0.14987,1.35677 -0.43685,1.74578 -0.15943,0.21364 -0.61062,0.6744 -1.41257,0.6744 l 0.21524,0.24712 c 1.33285,0 2.42815,-1.17502 2.42815,-2.6673 0,-1.509827 -1.07138,-2.758177 -2.42815,-2.758177 z"
         id="path5627" />
      <path
         style="font-style:normal;font-variant:normal;font-weight:normal;font-stretch:normal;letter-spacing:normal;word-spacing:normal;text-anchor:start;fill:#b909bb;fill-opacity:1;fill-rule:evenodd;stroke:#000000;stroke-width:0;stroke-linecap:butt;stroke-linejoin:miter;stroke-miterlimit:10.433;stroke-dasharray:none;stroke-dashoffset:0;stroke-opacity:1"
         inkscape:connector-curvature="0"
         d="m 51.290959,88.476727 v 0.0255 0.0255 0.0239 l -0.002,0.0239 -0.002,0.0207 -0.002,0.0207 -0.003,0.0207 -0.003,0.0175 -0.005,0.0191 -0.006,0.016 -0.006,0.0159 -0.008,0.0144 -0.01,0.0144 -0.0112,0.0127 -0.0128,0.0128 -0.0143,0.0112 -0.0159,0.01 -0.0175,0.01 -0.01,0.005 -0.0112,0.005 -0.0112,0.003 -0.0112,0.005 -0.0112,0.003 -0.0128,0.003 -0.0127,0.003 -0.0128,0.003 -0.0143,0.003 -0.0159,0.003 -0.0144,0.003 -0.0159,0.002 -0.0175,0.002 -0.0175,0.003 -0.0175,0.002 -0.0191,0.002 -0.0191,0.002 -0.0207,0.002 -0.0207,0.002 -0.0223,0.002 h -0.0223 l -0.0223,0.002 h -0.0239 l -0.0255,0.002 h -0.0255 -0.0271 -0.0271 -0.0271 -0.19291 v 0.24712 h 4.58368 l 0.33481,-2.0503 h -0.19929 c -0.1977,1.22285 -0.38105,1.80318 -1.74738,1.80318 h -1.05544 c -0.37467,0 -0.39221,-0.0542 -0.39221,-0.31568 v -2.12204 h 0.71585 c 0.77166,0 0.85934,0.2535 0.85934,0.92949 h 0.19611 V 85.2393 h -0.19611 c 0,0.68556 -0.0877,0.92949 -0.85934,0.92949 h -0.71585 v -1.90522 c 0,-0.26147 0.0175,-0.31727 0.39221,-0.31727 h 1.02355 c 1.21488,0 1.43011,0.43685 1.55766,1.54012 h 0.19929 l -0.2248,-1.78564 h -4.47208 v 0.24552 h 0.19291 c 0.60903,0 0.62657,0.0877 0.62657,0.37148 z"
         id="path5629" />
      <path
         style="font-style:normal;font-variant:normal;font-weight:normal;font-stretch:normal;letter-spacing:normal;word-spacing:normal;text-anchor:start;fill:#b909bb;fill-opacity:1;fill-rule:evenodd;stroke:#000000;stroke-width:0;stroke-linecap:butt;stroke-linejoin:miter;stroke-miterlimit:10.433;stroke-dasharray:none;stroke-dashoffset:0;stroke-opacity:1"
         inkscape:connector-curvature="0"
         d="m 60.247869,87.046617 h -0.19929 c -0.0877,0.81311 -0.19929,1.80318 -1.59751,1.80318 h -0.65049 c -0.37307,0 -0.39061,-0.0542 -0.39061,-0.31568 V 84.2996 c 0,-0.26944 0,-0.38104 0.75571,-0.38104 h 0.26307 v -0.24712 c -0.28539,0.0255 -1.00762,0.0255 -1.33445,0.0255 -0.3093,0 -0.92949,0 -1.2085,-0.0255 v 0.24712 h 0.19132 c 0.61063,0 0.62816,0.0861 0.62816,0.37307 v 4.185097 c 0,0.28698 -0.0175,0.37307 -0.62816,0.37307 h -0.19132 v 0.24712 h 4.13727 z"
         id="path5631" />
      <path
         style="font-style:normal;font-variant:normal;font-weight:normal;font-stretch:normal;letter-spacing:normal;word-spacing:normal;text-anchor:start;fill:#000000;fill-opacity:1;fill-rule:evenodd;stroke:#000000;stroke-width:0;stroke-linecap:butt;stroke-linejoin:miter;stroke-miterlimit:10.433;stroke-dasharray:none;stroke-dashoffset:0;stroke-opacity:1"
         inkscape:connector-curvature="0"
         d="m 61.823059,83.42432 v -0.0255 -0.0271 -0.0255 l -0.002,-0.0128 v -0.0128 l -0.002,-0.0128 -0.002,-0.0127 -0.002,-0.0112 -0.002,-0.0112 -0.003,-0.0112 -0.002,-0.0112 -0.003,-0.0112 -0.003,-0.01 -0.005,-0.01 -0.005,-0.01 -0.005,-0.01 -0.005,-0.008 -0.006,-0.008 -0.006,-0.008 -0.008,-0.006 -0.008,-0.006 -0.005,-0.002 -0.003,-0.003 -0.005,-0.003 -0.005,-0.002 -0.006,-0.002 -0.005,-0.003 -0.005,-0.002 -0.006,-0.002 -0.005,-0.002 -0.006,-0.002 h -0.006 l -0.006,-0.002 h -0.006 l -0.008,-0.002 h -0.006 -0.008 c -0.15943,0 -0.15943,0.14189 -0.15943,0.28379 v 7.372147 c 0,0.14349 0,0.28538 0.15943,0.28538 0.15943,0 0.15943,-0.14189 0.15943,-0.28538 z"
         id="path5633" />
      <path
         style="font-style:normal;font-variant:normal;font-weight:normal;font-stretch:normal;letter-spacing:normal;word-spacing:normal;text-anchor:start;fill:#0daf29;fill-opacity:1;fill-rule:evenodd;stroke:#000000;stroke-width:0;stroke-linecap:butt;stroke-linejoin:miter;stroke-miterlimit:10.433;stroke-dasharray:none;stroke-dashoffset:0;stroke-opacity:1"
         inkscape:connector-curvature="0"
         d="m 63.039529,83.67144 v 0.24712 h 0.18813 c 0.61381,0 0.62816,0.0861 0.62816,0.37307 v 4.185097 c 0,0.28698 -0.0144,0.37307 -0.62816,0.37307 h -0.18813 v 0.24712 h 2.90645 l -0.21364,-0.24712 h -0.80513 c -0.37148,0 -0.38902,-0.0542 -0.38902,-0.31568 V 84.23742 c 0,-0.26465 0.0175,-0.31886 0.38902,-0.31886 h 0.79556 c 0.49265,0 1.0411,0.17378 1.44605,0.73976 0.34119,0.46714 0.41134,1.15111 0.41134,1.771297 0,0.88166 -0.14987,1.35677 -0.43525,1.74578 -0.15943,0.21364 -0.61063,0.6744 -1.41257,0.6744 l 0.21364,0.24712 c 1.33285,0 2.42815,-1.17502 2.42815,-2.6673 0,-1.509827 -1.06979,-2.758177 -2.42815,-2.758177 z"
         id="path5635" />
      <path
         style="font-style:normal;font-variant:normal;font-weight:normal;font-stretch:normal;letter-spacing:normal;word-spacing:normal;text-anchor:start;fill:#0daf29;fill-opacity:1;fill-rule:evenodd;stroke:#000000;stroke-width:0;stroke-linecap:butt;stroke-linejoin:miter;stroke-miterlimit:10.433;stroke-dasharray:none;stroke-dashoffset:0;stroke-opacity:1"
         inkscape:connector-curvature="0"
         d="m 71.755689,83.5694 -0.003,-0.01 -0.003,-0.01 -0.003,-0.01 -0.005,-0.008 -0.003,-0.01 -0.003,-0.008 -0.003,-0.008 -0.003,-0.006 -0.003,-0.008 -0.003,-0.006 -0.003,-0.008 -0.005,-0.006 -0.003,-0.005 -0.005,-0.006 -0.003,-0.005 -0.005,-0.006 -0.005,-0.005 -0.005,-0.005 -0.006,-0.003 -0.005,-0.005 -0.006,-0.003 -0.006,-0.003 -0.006,-0.003 -0.008,-0.003 -0.008,-0.002 -0.008,-0.002 -0.008,-0.003 h -0.01 l -0.01,-0.002 -0.0112,-0.002 h -0.0112 -0.005 -0.006 c -0.12755,0 -0.15146,0.0478 -0.19132,0.15943 l -1.64375,4.751077 c -0.14189,0.40337 -0.46076,0.52294 -0.88963,0.52932 v 0.24712 c 0.18175,-0.008 0.52294,-0.0255 0.80992,-0.0255 0.24552,0 0.66005,0.0175 0.91354,0.0255 v -0.24712 c -0.39539,0 -0.59468,-0.19929 -0.59468,-0.40336 0,-0.0239 0.006,-0.10364 0.0144,-0.11958 l 0.3667,-1.04109 0.0861,-0.24712 0.88963,-2.579617 0.8976,2.579617 h -1.78723 l -0.0861,0.24712 h 1.95942 l 0.4209,1.21647 c 0.0112,0.0319 0.0255,0.0797 0.0255,0.10841 0,0.23915 -0.44641,0.23915 -0.66005,0.23915 v 0.24712 c 0.28698,-0.0255 0.8418,-0.0255 1.14632,-0.0255 0.34118,0 0.70469,0.0112 1.0379,0.0255 v -0.24712 h -0.14189 c -0.4783,0 -0.58671,-0.0542 -0.6744,-0.31568 z"
         id="path5637" />
      <path
         style="font-style:normal;font-variant:normal;font-weight:normal;font-stretch:normal;letter-spacing:normal;word-spacing:normal;text-anchor:start;fill:#0daf29;fill-opacity:1;fill-rule:evenodd;stroke:#000000;stroke-width:0;stroke-linecap:butt;stroke-linejoin:miter;stroke-miterlimit:10.433;stroke-dasharray:none;stroke-dashoffset:0;stroke-opacity:1"
         inkscape:connector-curvature="0"
         d="m 79.166109,83.71927 h -4.85472 l -0.14986,1.78883 h 0.19929 c 0.11,-1.28184 0.22958,-1.54331 1.42691,-1.54331 0.14509,0 0.35076,0 0.43047,0.0175 0.16741,0.0303 0.16741,0.11798 0.16741,0.30133 v 4.185097 c 0,0.27263 0,0.38104 -0.83383,0.38104 h -0.31887 v 0.24712 c 0.32524,-0.0255 1.13516,-0.0255 1.50185,-0.0255 0.3667,0 1.18299,0 1.50983,0.0255 v -0.24712 h -0.31887 c -0.83542,0 -0.83542,-0.10841 -0.83542,-0.38104 V 84.28362 c 0,-0.15943 0,-0.27104 0.14508,-0.30133 0.0877,-0.0175 0.30133,-0.0175 0.45279,-0.0175 1.19893,0 1.3185,0.26147 1.42851,1.54331 h 0.19929 z"
         id="path5639" />
      <path
         style="font-style:normal;font-variant:normal;font-weight:normal;font-stretch:normal;letter-spacing:normal;word-spacing:normal;text-anchor:start;fill:#0daf29;fill-opacity:1;fill-rule:evenodd;stroke:#000000;stroke-width:0;stroke-linecap:butt;stroke-linejoin:miter;stroke-miterlimit:10.433;stroke-dasharray:none;stroke-dashoffset:0;stroke-opacity:1"
         inkscape:connector-curvature="0"
         d="m 82.106039,83.5694 -0.003,-0.01 -0.005,-0.01 -0.003,-0.01 -0.003,-0.008 -0.003,-0.01 -0.003,-0.008 -0.003,-0.008 -0.003,-0.006 -0.003,-0.008 -0.003,-0.006 -0.005,-0.008 -0.003,-0.006 -0.003,-0.005 -0.005,-0.006 -0.005,-0.005 -0.003,-0.006 -0.005,-0.005 -0.006,-0.005 -0.005,-0.003 -0.005,-0.005 -0.006,-0.003 -0.006,-0.003 -0.008,-0.003 -0.006,-0.003 -0.008,-0.002 -0.008,-0.002 -0.008,-0.003 h -0.01 l -0.01,-0.002 -0.0112,-0.002 h -0.0112 -0.005 -0.006 c -0.12754,0 -0.15146,0.0478 -0.19131,0.15943 l -1.64535,4.751077 c -0.14189,0.40337 -0.46076,0.52294 -0.88803,0.52932 v 0.24712 c 0.18175,-0.008 0.52293,-0.0255 0.80832,-0.0255 0.24712,0 0.66164,0.0175 0.91514,0.0255 v -0.24712 c -0.39699,0 -0.59628,-0.19929 -0.59628,-0.40336 0,-0.0239 0.008,-0.10364 0.016,-0.11958 l 0.36669,-1.04109 0.0861,-0.24712 0.88964,-2.579617 0.8976,2.579617 h -1.78724 l -0.0861,0.24712 h 1.95942 l 0.4209,1.21647 c 0.0112,0.0319 0.0255,0.0797 0.0255,0.10841 0,0.23915 -0.44641,0.23915 -0.66005,0.23915 v 0.24712 c 0.28698,-0.0255 0.84181,-0.0255 1.14473,-0.0255 0.34278,0 0.70628,0.0112 1.0395,0.0255 v -0.24712 h -0.1419 c -0.4783,0 -0.5883,-0.0542 -0.6744,-0.31568 z"
         id="path5641" />
      <path
         style="font-style:normal;font-variant:normal;font-weight:normal;font-stretch:normal;letter-spacing:normal;word-spacing:normal;text-anchor:start;fill:#000000;fill-opacity:1;fill-rule:evenodd;stroke:#000000;stroke-width:0;stroke-linecap:butt;stroke-linejoin:miter;stroke-miterlimit:10.433;stroke-dasharray:none;stroke-dashoffset:0;stroke-opacity:1"
         inkscape:connector-curvature="0"
         d="m 87.246129,87.111987 v -0.059 l -0.002,-0.0622 -0.002,-0.0622 -0.002,-0.0654 -0.006,-0.13392 -0.01,-0.1403 -0.0128,-0.14668 -0.0175,-0.15146 -0.0207,-0.154647 -0.0271,-0.16102 -0.0303,-0.16263 -0.0367,-0.16421 -0.043,-0.1674 -0.0494,-0.169 -0.0542,-0.1706 -0.0638,-0.17059 -0.0335,-0.0845 -0.0351,-0.0845 -0.0383,-0.0845 -0.0399,-0.0845 c -0.47671,-0.97573 -1.15908,-1.49229 -1.23879,-1.49229 -0.0462,0 -0.0797,0.0303 -0.0797,0.0781 0,0.0239 0,0.0399 0.14987,0.18335 0.77962,0.7844 1.23241,2.0487 1.23241,3.709987 0,1.35677 -0.29336,2.75499 -1.28024,3.75622 -0.10204,0.0941 -0.10204,0.11161 -0.10204,0.13393 0,0.0478 0.0335,0.0797 0.0797,0.0797 0.0797,0 0.79238,-0.54047 1.2627,-1.54809 0.40336,-0.87209 0.49902,-1.75375 0.49902,-2.42177 z"
         id="path5643" />
      <rect
         y="76.90361"
         x="6.5836101"
         height="20.410713"
         width="85.044655"
         id="rect1710-3"
         style="opacity:1;vector-effect:none;fill:none;fill-opacity:1;stroke:#ff0a00;stroke-width:0.6;stroke-linecap:butt;stroke-linejoin:miter;stroke-miterlimit:4;stroke-dasharray:none;stroke-dashoffset:0;stroke-opacity:0.694118" />
    </g>
  </g>
</svg>
