<?xml version="1.0" encoding="UTF-8" standalone="no"?>
<!-- Created with Inkscape (http://www.inkscape.org/) -->

<svg
   width="210mm"
   height="297mm"
   viewBox="0 0 210 297"
   version="1.1"
   id="svg5"
   sodipodi:docname="gibbs_algorithm.svg"
   inkscape:version="1.2.2 (1:1.2.2+202212051550+b0a8486541)"
   inkscape:export-filename="../png/algorithm_1_sketch.png"
   inkscape:export-xdpi="300"
   inkscape:export-ydpi="300"
   xmlns:inkscape="http://www.inkscape.org/namespaces/inkscape"
   xmlns:sodipodi="http://sodipodi.sourceforge.net/DTD/sodipodi-0.dtd"
   xmlns="http://www.w3.org/2000/svg"
   xmlns:svg="http://www.w3.org/2000/svg">
  <sodipodi:namedview
     id="namedview7"
     pagecolor="#ffffff"
     bordercolor="#666666"
     borderopacity="1.0"
     inkscape:pageshadow="2"
     inkscape:pageopacity="0.0"
     inkscape:pagecheckerboard="0"
     inkscape:document-units="mm"
     showgrid="false"
     inkscape:zoom="1.1597475"
     inkscape:cx="432.85284"
     inkscape:cy="258.677"
     inkscape:window-width="1440"
     inkscape:window-height="851"
     inkscape:window-x="0"
     inkscape:window-y="25"
     inkscape:window-maximized="1"
     inkscape:current-layer="layer1"
     inkscape:showpageshadow="2"
     inkscape:deskcolor="#d1d1d1" />
  <defs
     id="defs2">
    <marker
       style="overflow:visible;"
       id="Arrow1Lend"
       refX="0.0"
       refY="0.0"
       orient="auto"
       inkscape:stockid="Arrow1Lend"
       inkscape:isstock="true">
      <path
         transform="scale(0.8) rotate(180) translate(12.5,0)"
         style="fill-rule:evenodd;fill:context-stroke;stroke:context-stroke;stroke-width:1.0pt;"
         d="M 0.0,0.0 L 5.0,-5.0 L -12.5,0.0 L 5.0,5.0 L 0.0,0.0 z "
         id="path8428" />
    </marker>
    <defs
       id="id-8ac5fa1b-1434-4c61-b14e-e29297b0a517">
      <g
         id="id-563741b0-a6d4-40d1-9aec-dc230604d255">
        <symbol
           overflow="visible"
           id="id-d6b0e8fe-493c-486d-9e9b-d04802dcd26c">
          <path
             style="stroke:none;stroke-width:0"
             d=""
             id="id-b417a132-fd97-460b-a73b-ccd69745ab2f" />
        </symbol>
        <symbol
           overflow="visible"
           id="id-54b998cd-15a0-4ef4-96e8-076b00d2ba46">
          <path
             style="stroke:none;stroke-width:0"
             d="m 4.53125,-4.984375 c 0,-0.65625 -0.171875,-2.046875 -1.1875,-2.046875 -1.390625,0 -2.921875,2.8125 -2.921875,5.09375 0,0.9375 0.28125,2.046875 1.1875,2.046875 1.40625,0 2.921875,-2.859375 2.921875,-5.09375 z M 1.46875,-3.625 C 1.640625,-4.25 1.84375,-5.046875 2.25,-5.765625 2.515625,-6.25 2.875,-6.8125 3.328125,-6.8125 c 0.484375,0 0.546875,0.640625 0.546875,1.203125 0,0.5 -0.078125,1 -0.3125,1.984375 z m 2,0.328125 C 3.359375,-2.84375 3.15625,-2 2.765625,-1.28125 c -0.34375,0.6875 -0.71875,1.171875 -1.15625,1.171875 -0.328125,0 -0.53125,-0.296875 -0.53125,-1.21875 0,-0.421875 0.0625,-1 0.3125,-1.96875 z m 0,0"
             id="id-c99c09c3-219f-4538-b83d-c0b56b61d8ef" />
        </symbol>
        <symbol
           overflow="visible"
           id="id-f8444d8b-128e-4fd6-bf30-915dd33404f1">
          <path
             style="stroke:none;stroke-width:0"
             d="M 4.828125,-4.09375 4,-6.078125 c -0.03125,-0.078125 -0.046875,-0.125 -0.046875,-0.125 0,-0.0625 0.15625,-0.25 0.578125,-0.296875 0.109375,-0.015625 0.203125,-0.015625 0.203125,-0.1875 0,-0.125 -0.125,-0.125 -0.15625,-0.125 -0.40625,0 -0.828125,0.03125 -1.25,0.03125 -0.25,0 -0.859375,-0.03125 -1.109375,-0.03125 -0.0625,0 -0.1875,0 -0.1875,0.203125 C 2.03125,-6.5 2.140625,-6.5 2.265625,-6.5 c 0.59375,0 0.65625,0.09375 0.75,0.3125 l 1.171875,2.78125 -2.109375,2.265625 -0.125,0.109375 C 1.46875,-0.5 1,-0.34375 0.484375,-0.3125 c -0.125,0.015625 -0.21875,0.015625 -0.21875,0.203125 0,0.015625 0,0.109375 0.140625,0.109375 0.296875,0 0.625,-0.03125 0.921875,-0.03125 C 1.703125,-0.03125 2.09375,0 2.453125,0 2.515625,0 2.625,0 2.625,-0.203125 2.625,-0.296875 2.53125,-0.3125 2.515625,-0.3125 c -0.09375,0 -0.40625,-0.03125 -0.40625,-0.3125 0,-0.15625 0.15625,-0.3125 0.265625,-0.4375 L 3.40625,-2.140625 4.296875,-3.125 l 1,2.390625 c 0.046875,0.109375 0.0625,0.109375 0.0625,0.140625 0,0.078125 -0.203125,0.25 -0.578125,0.28125 C 4.671875,-0.296875 4.578125,-0.296875 4.578125,-0.125 4.578125,0 4.6875,0 4.71875,0 5,0 5.703125,-0.03125 5.984375,-0.03125 6.234375,-0.03125 6.84375,0 7.09375,0 c 0.0625,0 0.1875,0 0.1875,-0.1875 0,-0.125 -0.109375,-0.125 -0.1875,-0.125 -0.65625,0 -0.6875,-0.03125 -0.859375,-0.4375 C 5.859375,-1.671875 5.1875,-3.234375 4.953125,-3.828125 5.625,-4.53125 6.671875,-5.71875 7,-5.984375 7.28125,-6.234375 7.671875,-6.46875 8.265625,-6.5 c 0.125,-0.015625 0.21875,-0.015625 0.21875,-0.203125 0,0 0,-0.109375 -0.125,-0.109375 -0.296875,0 -0.640625,0.03125 -0.9375,0.03125 -0.375,0 -0.75,-0.03125 -1.109375,-0.03125 -0.0625,0 -0.1875,0 -0.1875,0.203125 0,0.0625 0.046875,0.09375 0.109375,0.109375 0.09375,0.015625 0.40625,0.03125 0.40625,0.3125 0,0.140625 -0.109375,0.265625 -0.1875,0.359375 z m 0,0"
             id="id-54b4a282-d9ad-4854-a22e-f40ee1e2c672" />
        </symbol>
        <symbol
           overflow="visible"
           id="id-044a569c-bccb-4244-b1d2-1ffd3e7125ad">
          <path
             style="stroke:none;stroke-width:0"
             d=""
             id="id-709accf6-e7d0-4d06-9b05-a0e0c6903974" />
        </symbol>
        <symbol
           overflow="visible"
           id="id-6d539942-1b2b-4513-a0fd-52f23c0990dc">
          <path
             style="stroke:none;stroke-width:0"
             d="m 2.328125,-4.4375 c 0,-0.1875 0,-0.1875 -0.203125,-0.1875 -0.453125,0.4375 -1.078125,0.4375 -1.359375,0.4375 v 0.25 c 0.15625,0 0.625,0 1,-0.1875 v 3.546875 c 0,0.234375 0,0.328125 -0.6875,0.328125 H 0.8125 V 0 c 0.125,0 0.984375,-0.03125 1.234375,-0.03125 0.21875,0 1.09375,0.03125 1.25,0.03125 V -0.25 H 3.03125 c -0.703125,0 -0.703125,-0.09375 -0.703125,-0.328125 z m 0,0"
             id="id-d1181789-1ae5-4425-af12-2d7ff5c1c596" />
        </symbol>
        <symbol
           overflow="visible"
           id="id-4bd5e984-f7f9-45ff-83d1-b29b7144e146">
          <path
             style="stroke:none;stroke-width:0"
             d="M 1.53125,-2.59375 C 1.53125,-2.84375 1.328125,-3 1.125,-3 c -0.234375,0 -0.40625,0.1875 -0.40625,0.390625 0,0.25 0.203125,0.40625 0.40625,0.40625 0.234375,0 0.40625,-0.1875 0.40625,-0.390625 z m 0,2.203125 c 0,-0.25 -0.203125,-0.40625 -0.40625,-0.40625 -0.234375,0 -0.40625,0.1875 -0.40625,0.390625 C 0.71875,-0.15625 0.921875,0 1.125,0 1.359375,0 1.53125,-0.1875 1.53125,-0.390625 Z m 0,0"
             id="id-ed639688-eb49-4fc0-9ab5-9ac76ba4e0fb" />
        </symbol>
        <symbol
           overflow="visible"
           id="id-9a0bd413-adb4-4526-b858-0e900d0fecb3">
          <path
             style="stroke:none;stroke-width:0"
             d=""
             id="id-264d3d9a-8398-47d4-b909-10decfccbca5" />
        </symbol>
        <symbol
           overflow="visible"
           id="id-58f92f2c-00a4-4627-8a11-8ad5268f061e">
          <path
             style="stroke:none;stroke-width:0"
             d="m 3.390625,-4.21875 c 0.046875,-0.203125 0.0625,-0.21875 0.21875,-0.234375 0.03125,0 0.265625,0 0.40625,0 0.4375,0 0.609375,0 0.78125,0.046875 0.3125,0.09375 0.328125,0.296875 0.328125,0.546875 0,0.109375 0,0.203125 -0.046875,0.5625 L 5.0625,-3.21875 c 0,0.078125 0.046875,0.109375 0.125,0.109375 0.109375,0 0.109375,-0.0625 0.125,-0.171875 L 5.5,-4.609375 c 0,-0.09375 -0.078125,-0.09375 -0.203125,-0.09375 h -4.28125 c -0.171875,0 -0.1875,0 -0.234375,0.140625 l -0.453125,1.234375 c 0,0.03125 -0.03125,0.09375 -0.03125,0.125 0,0.03125 0.015625,0.09375 0.125,0.09375 0.09375,0 0.09375,-0.03125 0.140625,-0.171875 0.40625,-1.109375 0.640625,-1.171875 1.703125,-1.171875 h 0.28125 c 0.21875,0 0.21875,0 0.21875,0.0625 0,0 0,0.046875 -0.03125,0.140625 L 1.8125,-0.578125 C 1.75,-0.328125 1.734375,-0.25 1,-0.25 c -0.25,0 -0.3125,0 -0.3125,0.15625 C 0.6875,-0.078125 0.703125,0 0.8125,0 1,0 1.21875,-0.015625 1.40625,-0.015625 1.609375,-0.015625 1.8125,-0.03125 2,-0.03125 c 0.203125,0 0.4375,0 0.640625,0.015625 C 2.828125,-0.015625 3.03125,0 3.21875,0 3.28125,0 3.375,0 3.375,-0.15625 3.375,-0.25 3.3125,-0.25 3.09375,-0.25 c -0.125,0 -0.265625,-0.015625 -0.40625,-0.015625 -0.234375,-0.015625 -0.25,-0.046875 -0.25,-0.125 0,-0.0625 0,-0.0625 0.03125,-0.171875 z m 0,0"
             id="id-31e4718c-a16e-4b4e-9808-fcd112bd7f91" />
        </symbol>
      </g>
    </defs>
    <marker
       style="overflow:visible"
       id="Arrow1Lend-6"
       refX="0"
       refY="0"
       orient="auto"
       inkscape:stockid="Arrow1Lend"
       inkscape:isstock="true">
      <path
         transform="matrix(-0.8,0,0,-0.8,-10,0)"
         style="fill:context-stroke;fill-rule:evenodd;stroke:context-stroke;stroke-width:1pt"
         d="M 0,0 5,-5 -12.5,0 5,5 Z"
         id="path8428-7" />
    </marker>
    <marker
       style="overflow:visible"
       id="Arrow1Lend-6-3"
       refX="0"
       refY="0"
       orient="auto"
       inkscape:stockid="Arrow1Lend"
       inkscape:isstock="true">
      <path
         transform="matrix(-0.8,0,0,-0.8,-10,0)"
         style="fill:context-stroke;fill-rule:evenodd;stroke:context-stroke;stroke-width:1pt"
         d="M 0,0 5,-5 -12.5,0 5,5 Z"
         id="path8428-7-5" />
    </marker>
  </defs>
  <g
     inkscape:label="Layer 1"
     inkscape:groupmode="layer"
     id="layer1">
    <rect
       style="fill:#00a81a;fill-opacity:0.232978;stroke:#00a91a;stroke-width:0.264999;stroke-linecap:round;stroke-linejoin:round;stroke-opacity:0.992157;paint-order:markers fill stroke;stop-color:#000000"
       id="rect846"
       width="47.151196"
       height="18.03467"
       x="61.926537"
       y="42.492046" />
    <text
       xml:space="preserve"
       style="font-size:3.84175px;line-height:1.25;font-family:sans-serif;letter-spacing:0px;word-spacing:0px;stroke-width:0.320145"
       x="64.726105"
       y="50.609337"
       id="text2909"><tspan
         sodipodi:role="line"
         id="tspan2907"
         style="stroke-width:0.320145"
         x="64.726105"
         y="50.609337">Sampling parameters</tspan></text>
    <g
       style="fill:#000000;fill-opacity:1"
       id="id-1fc37eee-aad4-47b9-90ba-5e5bcf7ff9c0"
       transform="matrix(0.42686138,0,0,0.42686138,20.965575,-1.3694171)">
      <g
         transform="translate(148.712,134.765)"
         id="g8198">
        <path
           style="stroke:none;stroke-width:0"
           d="m 4.53125,-4.984375 c 0,-0.65625 -0.171875,-2.046875 -1.1875,-2.046875 -1.390625,0 -2.921875,2.8125 -2.921875,5.09375 0,0.9375 0.28125,2.046875 1.1875,2.046875 1.40625,0 2.921875,-2.859375 2.921875,-5.09375 z M 1.46875,-3.625 C 1.640625,-4.25 1.84375,-5.046875 2.25,-5.765625 2.515625,-6.25 2.875,-6.8125 3.328125,-6.8125 c 0.484375,0 0.546875,0.640625 0.546875,1.203125 0,0.5 -0.078125,1 -0.3125,1.984375 z m 2,0.328125 C 3.359375,-2.84375 3.15625,-2 2.765625,-1.28125 c -0.34375,0.6875 -0.71875,1.171875 -1.15625,1.171875 -0.328125,0 -0.53125,-0.296875 -0.53125,-1.21875 0,-0.421875 0.0625,-1 0.3125,-1.96875 z m 0,0"
           id="id-01309252-0143-4590-af7c-8c407791d689" />
      </g>
    </g>
    <rect
       style="fill:#800080;fill-opacity:0.232978;stroke:#430043;stroke-width:0.264999;stroke-linecap:round;stroke-linejoin:round;stroke-opacity:0.231373;paint-order:markers fill stroke;stop-color:#000000"
       id="rect846-3"
       width="47.151196"
       height="18.03467"
       x="126.70405"
       y="42.492046" />
    <text
       xml:space="preserve"
       style="font-size:3.84175px;line-height:1.25;font-family:sans-serif;letter-spacing:0px;word-spacing:0px;stroke-width:0.320145"
       x="130.85614"
       y="50.783161"
       id="text6249"><tspan
         sodipodi:role="line"
         id="tspan6247"
         style="stroke-width:0.320145"
         x="130.85614"
         y="50.783161">Sampling dynamical </tspan><tspan
         sodipodi:role="line"
         style="stroke-width:0.320145"
         x="130.85614"
         y="55.58535"
         id="tspan59184">states</tspan></text>
    <g
       id="g8331"
       transform="matrix(1.21,0,0,1.21,44.721937,-38.927377)">
      <g
         style="fill:#000000;fill-opacity:1"
         id="id-39a969b0-ca36-40bb-9e01-892861e32b6b"
         transform="matrix(0.352778,0,0,0.352778,26.098826,30.483282)">
        <g
           transform="translate(156.985,134.765)"
           id="g8202">
          <path
             style="stroke:none;stroke-width:0"
             d="M 4.828125,-4.09375 4,-6.078125 c -0.03125,-0.078125 -0.046875,-0.125 -0.046875,-0.125 0,-0.0625 0.15625,-0.25 0.578125,-0.296875 0.109375,-0.015625 0.203125,-0.015625 0.203125,-0.1875 0,-0.125 -0.125,-0.125 -0.15625,-0.125 -0.40625,0 -0.828125,0.03125 -1.25,0.03125 -0.25,0 -0.859375,-0.03125 -1.109375,-0.03125 -0.0625,0 -0.1875,0 -0.1875,0.203125 C 2.03125,-6.5 2.140625,-6.5 2.265625,-6.5 c 0.59375,0 0.65625,0.09375 0.75,0.3125 l 1.171875,2.78125 -2.109375,2.265625 -0.125,0.109375 C 1.46875,-0.5 1,-0.34375 0.484375,-0.3125 c -0.125,0.015625 -0.21875,0.015625 -0.21875,0.203125 0,0.015625 0,0.109375 0.140625,0.109375 0.296875,0 0.625,-0.03125 0.921875,-0.03125 C 1.703125,-0.03125 2.09375,0 2.453125,0 2.515625,0 2.625,0 2.625,-0.203125 2.625,-0.296875 2.53125,-0.3125 2.515625,-0.3125 c -0.09375,0 -0.40625,-0.03125 -0.40625,-0.3125 0,-0.15625 0.15625,-0.3125 0.265625,-0.4375 L 3.40625,-2.140625 4.296875,-3.125 l 1,2.390625 c 0.046875,0.109375 0.0625,0.109375 0.0625,0.140625 0,0.078125 -0.203125,0.25 -0.578125,0.28125 C 4.671875,-0.296875 4.578125,-0.296875 4.578125,-0.125 4.578125,0 4.6875,0 4.71875,0 5,0 5.703125,-0.03125 5.984375,-0.03125 6.234375,-0.03125 6.84375,0 7.09375,0 c 0.0625,0 0.1875,0 0.1875,-0.1875 0,-0.125 -0.109375,-0.125 -0.1875,-0.125 -0.65625,0 -0.6875,-0.03125 -0.859375,-0.4375 C 5.859375,-1.671875 5.1875,-3.234375 4.953125,-3.828125 5.625,-4.53125 6.671875,-5.71875 7,-5.984375 7.28125,-6.234375 7.671875,-6.46875 8.265625,-6.5 c 0.125,-0.015625 0.21875,-0.015625 0.21875,-0.203125 0,0 0,-0.109375 -0.125,-0.109375 -0.296875,0 -0.640625,0.03125 -0.9375,0.03125 -0.375,0 -0.75,-0.03125 -1.109375,-0.03125 -0.0625,0 -0.1875,0 -0.1875,0.203125 0,0.0625 0.046875,0.09375 0.109375,0.109375 0.09375,0.015625 0.40625,0.03125 0.40625,0.3125 0,0.140625 -0.109375,0.265625 -0.1875,0.359375 z m 0,0"
             id="id-3f119f9a-227e-4733-a0d0-e24590f9659b" />
        </g>
      </g>
      <g
         style="fill:#000000;fill-opacity:1"
         id="id-d5114201-a7c2-4465-8651-cb5bea060d96"
         transform="matrix(0.352778,0,0,0.352778,26.098826,30.483282)">
        <g
           transform="translate(165.241,136.259)"
           id="g8206">
          <path
             style="stroke:none;stroke-width:0"
             d="m 2.328125,-4.4375 c 0,-0.1875 0,-0.1875 -0.203125,-0.1875 -0.453125,0.4375 -1.078125,0.4375 -1.359375,0.4375 v 0.25 c 0.15625,0 0.625,0 1,-0.1875 v 3.546875 c 0,0.234375 0,0.328125 -0.6875,0.328125 H 0.8125 V 0 c 0.125,0 0.984375,-0.03125 1.234375,-0.03125 0.21875,0 1.09375,0.03125 1.25,0.03125 V -0.25 H 3.03125 c -0.703125,0 -0.703125,-0.09375 -0.703125,-0.328125 z m 0,0"
             id="id-b89fb65e-0084-462a-ac51-67aee766e733" />
        </g>
        <g
           transform="translate(169.213,136.259)"
           id="g8209">
          <path
             style="stroke:none;stroke-width:0"
             d="M 1.53125,-2.59375 C 1.53125,-2.84375 1.328125,-3 1.125,-3 c -0.234375,0 -0.40625,0.1875 -0.40625,0.390625 0,0.25 0.203125,0.40625 0.40625,0.40625 0.234375,0 0.40625,-0.1875 0.40625,-0.390625 z m 0,2.203125 c 0,-0.25 -0.203125,-0.40625 -0.40625,-0.40625 -0.234375,0 -0.40625,0.1875 -0.40625,0.390625 C 0.71875,-0.15625 0.921875,0 1.125,0 1.359375,0 1.53125,-0.1875 1.53125,-0.390625 Z m 0,0"
             id="id-b85bf278-00c8-42dc-a23f-97d628844679" />
        </g>
      </g>
      <g
         style="fill:#000000;fill-opacity:1"
         id="id-2c45923e-ec49-4952-968c-f7c5e9562793"
         transform="matrix(0.352778,0,0,0.352778,26.098826,30.483282)">
        <g
           transform="translate(171.467,136.259)"
           id="g8213">
          <path
             style="stroke:none;stroke-width:0"
             d="m 3.390625,-4.21875 c 0.046875,-0.203125 0.0625,-0.21875 0.21875,-0.234375 0.03125,0 0.265625,0 0.40625,0 0.4375,0 0.609375,0 0.78125,0.046875 0.3125,0.09375 0.328125,0.296875 0.328125,0.546875 0,0.109375 0,0.203125 -0.046875,0.5625 L 5.0625,-3.21875 c 0,0.078125 0.046875,0.109375 0.125,0.109375 0.109375,0 0.109375,-0.0625 0.125,-0.171875 L 5.5,-4.609375 c 0,-0.09375 -0.078125,-0.09375 -0.203125,-0.09375 h -4.28125 c -0.171875,0 -0.1875,0 -0.234375,0.140625 l -0.453125,1.234375 c 0,0.03125 -0.03125,0.09375 -0.03125,0.125 0,0.03125 0.015625,0.09375 0.125,0.09375 0.09375,0 0.09375,-0.03125 0.140625,-0.171875 0.40625,-1.109375 0.640625,-1.171875 1.703125,-1.171875 h 0.28125 c 0.21875,0 0.21875,0 0.21875,0.0625 0,0 0,0.046875 -0.03125,0.140625 L 1.8125,-0.578125 C 1.75,-0.328125 1.734375,-0.25 1,-0.25 c -0.25,0 -0.3125,0 -0.3125,0.15625 C 0.6875,-0.078125 0.703125,0 0.8125,0 1,0 1.21875,-0.015625 1.40625,-0.015625 1.609375,-0.015625 1.8125,-0.03125 2,-0.03125 c 0.203125,0 0.4375,0 0.640625,0.015625 C 2.828125,-0.015625 3.03125,0 3.21875,0 3.28125,0 3.375,0 3.375,-0.15625 3.375,-0.25 3.3125,-0.25 3.09375,-0.25 c -0.125,0 -0.265625,-0.015625 -0.40625,-0.015625 -0.234375,-0.015625 -0.25,-0.046875 -0.25,-0.125 0,-0.0625 0,-0.0625 0.03125,-0.171875 z m 0,0"
             id="id-873a13ab-3b77-438b-bc3e-5c9df5a1467f" />
        </g>
      </g>
    </g>
    <path
       style="fill:none;stroke:#000000;stroke-width:0.264583px;stroke-linecap:butt;stroke-linejoin:miter;stroke-opacity:1;marker-end:url(#Arrow1Lend-6)"
       d="m 106.74846,40.028332 c 6.04825,-8.055702 15.71142,-7.692894 22.06085,0.49638"
       id="path8366-5"
       sodipodi:nodetypes="cc" />
    <text
       xml:space="preserve"
       style="font-size:3.84175px;line-height:1.25;font-family:sans-serif;letter-spacing:0px;word-spacing:0px;stroke-width:0.320145"
       x="91.521973"
       y="74.821243"
       id="text9334"><tspan
         sodipodi:role="line"
         id="tspan9332"
         style="stroke-width:0.320145"
         x="91.521973"
         y="74.821243">Gibbs / Metropolis-Hastings</tspan></text>
    <path
       style="fill:none;stroke:#000000;stroke-width:0.264583px;stroke-linecap:butt;stroke-linejoin:miter;stroke-opacity:1;marker-end:url(#Arrow1Lend-6-3)"
       d="M 129.01825,63.144821 C 122.97,71.200523 113.30683,70.837715 106.9574,62.648441"
       id="path8366-5-6"
       sodipodi:nodetypes="cc" />
    <text
       xml:space="preserve"
       style="font-size:3.84175px;line-height:1.25;font-family:sans-serif;text-align:center;letter-spacing:0px;word-spacing:0px;text-anchor:middle;stroke-width:0.320145"
       x="117.86929"
       y="26.728516"
       id="text11712"><tspan
         sodipodi:role="line"
         id="tspan11710"
         style="text-align:center;text-anchor:middle;stroke-width:0.320145"
         x="117.86929"
         y="26.728516">Particle Gibbs with Ancestor Sampling</tspan><tspan
         sodipodi:role="line"
         style="text-align:center;text-anchor:middle;stroke-width:0.320145"
         x="117.86929"
         y="31.530704"
         id="tspan11714">(PGAS)</tspan></text>
  </g>
</svg>
